<svg role="img" viewBox="0 0 24 24" xmlns="http://www.w3.org/2000/svg"><title>MongoDB</title><rect width="24" height="24" rx="5" fill="#e8f5e9"/><path fill="currentColor" d="M12.002 0c-.08 0-.158.04-.205.11-.047.07-4.61 6.98-4.61 11.89 0 4.91 4.563 11.82 4.61 11.89.047.07.125.11.205.11s.158-.04.205-.11c.047-.07 4.61-6.98 4.61-11.89 0-4.91-4.563-11.82-4.61-11.89A.237.237 0 0 0 12.002 0zm0 21.77c-1.13-1.86-4.13-7.01-4.13-9.77 0-2.76 3-7.91 4.13-9.77 1.13 1.86 4.13 7.01 4.13 9.77 0 2.76-3 7.91-4.13 9.77z"/></svg>