<svg role="img" viewBox="0 0 24 24" xmlns="http://www.w3.org/2000/svg"><title>Apple</title><rect width="24" height="24" rx="5" fill="#f3f6fa"/><path fill="currentColor" d="M16.365 1.43c0 1.14-.42 2.28-1.19 3.18-.77.9-1.8 1.44-2.94 1.44-.02-1.14.42-2.28 1.19-3.18.77-.9 1.8-1.44 2.94-1.44zm4.13 16.13c-.13.29-.27.57-.43.84-.23.37-.47.73-.75 1.07-.41.5-.84.99-1.36 1.41-.54.43-1.13.8-1.77.8-.62 0-.87-.2-1.62-.2-.75 0-1.03.2-1.63.2-.65 0-1.18-.36-1.7-.79-.49-.4-.92-.87-1.3-1.37-.36-.47-.68-.97-.95-1.5-.25-.48-.47-.98-.65-1.5-.17-.48-.31-.97-.41-1.47-.09-.45-.14-.91-.14-1.37 0-.7.13-1.36.39-1.98.25-.6.62-1.13 1.09-1.56.47-.43 1.04-.77 1.7-.77.54 0 1.01.19 1.62.19.61 0 1.03-.19 1.62-.19.66 0 1.23.34 1.7.77.47.43.84.96 1.09 1.56.26.62.39 1.28.39 1.98 0 .47-.05.93-.14 1.37-.1.5-.24.99-.41 1.47-.18.52-.4 1.02-.65 1.5-.27.53-.59 1.03-.95 1.5-.38.5-.81.97-1.3 1.37-.52.43-1.05.79-1.7.79-.6 0-.88-.2-1.63-.2-.75 0-1.01.2-1.62.2-.64 0-1.23-.37-1.77-.8-.52-.42-.95-.91-1.36-1.41-.28-.34-.52-.7-.75-1.07-.16-.27-.3-.55-.43-.84-.13-.29-.24-.59-.33-.89-.09-.3-.16-.61-.21-.92-.05-.31-.08-.62-.08-.94 0-.7.13-1.36.39-1.98.25-.6.62-1.13 1.09-1.56.47-.43 1.04-.77 1.7-.77.54 0 1.01.19 1.62.19.61 0 1.03-.19 1.62-.19.66 0 1.23.34 1.7.77.47.43.84.96 1.09 1.56.26.62.39 1.28.39 1.98 0 .32-.03.63-.08.94-.05.31-.12.62-.21.92-.09.3-.2.6-.33.89z"/></svg>