<svg role="img" viewBox="0 0 24 24" xmlns="http://www.w3.org/2000/svg"><title>Docker</title><rect width="24" height="24" rx="5" fill="#e3f2fd"/><path fill="currentColor" d="M23.807 10.87c-.13-.1-.36-.13-.56-.08-.13.03-.25.1-.34.2-.09.1-.14.23-.13.36.01.13.07.25.17.34.1.09.23.14.36.13.13-.01.25-.07.34-.17.09-.1.14-.23.13-.36-.01-.13-.07-.25-.17-.34zm-2.13-1.13c-.13-.13-.34-.13-.47 0-.13.13-.13.34 0 .47.13.13.34.13.47 0 .13-.13.13-.34 0-.47zm-2.13-1.13c-.13-.13-.34-.13-.47 0-.13.13-.13.34 0 .47.13.13.34.13.47 0 .13-.13.13-.34 0-.47zm-2.13-1.13c-.13-.13-.34-.13-.47 0-.13.13-.13.34 0 .47.13.13.34.13.47 0 .13-.13.13-.34 0-.47zm-2.13-1.13c-.13-.13-.34-.13-.47 0-.13.13-.13.34 0 .47.13.13.34.13.47 0 .13-.13.13-.34 0-.47zm-2.13-1.13c-.13-.13-.34-.13-.47 0-.13.13-.13.34 0 .47.13.13.34.13.47 0 .13-.13.13-.34 0-.47zm-2.13-1.13c-.13-.13-.34-.13-.47 0-.13.13-.13.34 0 .47.13.13.34.13.47 0 .13-.13.13-.34 0-.47zm-2.13-1.13c-.13-.13-.34-.13-.47 0-.13.13-.13.34 0 .47.13.13.34.13.47 0 .13-.13.13-.34 0-.47zm-2.13-1.13c-.13-.13-.34-.13-.47 0-.13.13-.13.34 0 .47.13.13.34.13.47 0 .13-.13.13-.34 0-.47zm-2.13-1.13c-.13-.13-.34-.13-.47 0-.13.13-.13.34 0 .47.13.13.34.13.47 0 .13-.13.13-.34 0-.47zm-2.13-1.13c-.13-.13-.34-.13-.47 0-.13.13-.13.34 0 .47.13.13.34.13.47 0 .13-.13.13-.34 0-.47zm-2.13-1.13c-.13-.13-.34-.13-.47 0-.13.13-.13.34 0 .47.13.13.34.13.47 0 .13-.13.13-.34 0-.47zm-2.13-1.13c-.13-.13-.34-.13-.47 0-.13.13-.13.34 0 .47.13.13.34.13.47 0 .13-.13.13-.34 0-.47z"/></svg>