<svg role="img" viewBox="0 0 24 24" xmlns="http://www.w3.org/2000/svg"><title>MySQL</title><rect width="24" height="24" rx="5" fill="#e0f7fa"/><path fill="#00758F" d="M21.94 20.13c-.13-.13-.34-.13-.47 0-.13.13-.13.34 0 .47.13.13.34.13.47 0 .13-.13.13-.34 0-.47zm-2.13-1.13c-.13-.13-.34-.13-.47 0-.13.13-.13.34 0 .47.13.13.34.13.47 0 .13-.13.13-.34 0-.47zm-2.13-1.13c-.13-.13-.34-.13-.47 0-.13.13-.13.34 0 .47.13.13.34.13.47 0 .13-.13.13-.34 0-.47zm-2.13-1.13c-.13-.13-.34-.13-.47 0-.13.13-.13.34 0 .47.13.13.34.13.47 0 .13-.13.13-.34 0-.47zm-2.13-1.13c-.13-.13-.34-.13-.47 0-.13.13-.13.34 0 .47.13.13.34.13.47 0 .13-.13.13-.34 0-.47zm-2.13-1.13c-.13-.13-.34-.13-.47 0-.13.13-.13.34 0 .47.13.13.34.13.47 0 .13-.13.13-.34 0-.47zm-2.13-1.13c-.13-.13-.34-.13-.47 0-.13.13-.13.34 0 .47.13.13.34.13.47 0 .13-.13.13-.34 0-.47zm-2.13-1.13c-.13-.13-.34-.13-.47 0-.13.13-.13.34 0 .47.13.13.34.13.47 0 .13-.13.13-.34 0-.47zm-2.13-1.13c-.13-.13-.34-.13-.47 0-.13.13-.13.34 0 .47.13.13.34.13.47 0 .13-.13.13-.34 0-.47zm-2.13-1.13c-.13-.13-.34-.13-.47 0-.13.13-.13.34 0 .47.13.13.34.13.47 0 .13-.13.13-.34 0-.47zm-2.13-1.13c-.13-.13-.34-.13-.47 0-.13.13-.13.34 0 .47.13.13.34.13.47 0 .13-.13.13-.34 0-.47zm-2.13-1.13c-.13-.13-.34-.13-.47 0-.13.13-.13.34 0 .47.13.13.34.13.47 0 .13-.13.13-.34 0-.47zm-2.13-1.13c-.13-.13-.34-.13-.47 0-.13.13-.13.34 0 .47.13.13.34.13.47 0 .13-.13.13-.34 0-.47z"/></svg>