<svg role="img" viewBox="0 0 24 24" xmlns="http://www.w3.org/2000/svg"><title>aaPanel</title><rect width="24" height="24" rx="5" fill="#e3f2fd"/><path fill="currentColor" d="M12 2c-5.52 0-10 4.48-10 10s4.48 10 10 10 10-4.48 10-10S17.52 2 12 2zm0 1.5c4.694 0 8.5 3.806 8.5 8.5s-3.806 8.5-8.5 8.5-8.5-3.806-8.5-8.5 3.806-8.5 8.5-8.5zm-3.25 5.25a.75.75 0 0 0-.75.75v6a.75.75 0 0 0 .75.75h6.5a.75.75 0 0 0 .75-.75v-6a.75.75 0 0 0-.75-.75h-6.5zm.75 1.5h5v4.5h-5v-4.5zm-2 7.25a.75.75 0 0 1 .75-.75h10a.75.75 0 0 1 0 1.5h-10a.75.75 0 0 1-.75-.75z"/></svg>